# xmcd
#
# Track frame offsets: 
#        150
#        14383
#        30432
#        47477
#
# Disc length: 907 seconds
#
# Revision: 0
# Processed by: cddbd v1.5.2PL0 Copyright (c) Steve Scherf et al.
# Submitted via: ExactAudioCopy v0.99pb5
#
DISCID=22038904
DTITLE=Black Nova - Untitled
DYEAR=2009
DGENRE=Stoner
TTITLE0=Fire And Pills
TTITLE1=Exit
TTITLE2=Cut Off My Wings
TTITLE3=Ambience (Live)
EXTD=
EXTT0=
EXTT1=
EXTT2=
EXTT3=
PLAYORDER=
